<svg id="Ebene_1" data-name="Ebene 1" xmlns="http://www.w3.org/2000/svg" viewBox="0 0 106.41 102.33"><defs><style>.cls-1{fill:#fd1a16;}.cls-2{fill:#fff;}</style></defs><title>Verunstaltung Logo rund Caramba</title><ellipse class="cls-1" cx="53.21" cy="51.16" rx="53.21" ry="51.16"/><path class="cls-2" d="M170.67,78.45l.05-34.69a18,18,0,0,0-.95-5.88,12.77,12.77,0,0,0-3.2-5,16,16,0,0,0-5.93-3.54A27.62,27.62,0,0,0,151.5,28a28.26,28.26,0,0,0-8,1,17.62,17.62,0,0,0-5.82,2.79,12.23,12.23,0,0,0-3.5,4.05,10.29,10.29,0,0,0-1.18,4.8,6.08,6.08,0,0,0,.94,3.53c.64.92,2.26,1.37,4.87,1.37a4.94,4.94,0,0,0,3.44-1.08,3.49,3.49,0,0,0,1.19-2.68,16.6,16.6,0,0,0-.36-2.8,21.12,21.12,0,0,1-.35-3.82,4.46,4.46,0,0,1,2.55-4.28,12.44,12.44,0,0,1,6.06-1.21,11.82,11.82,0,0,1,4.75.8,6,6,0,0,1,2.73,2.34,10.11,10.11,0,0,1,1.3,3.71,30.2,30.2,0,0,1,.36,4.91V59.16a23,23,0,0,1-1.54,8.62,24.12,24.12,0,0,1-3.86,6.56,17.43,17.43,0,0,1-5.1,4.22,11.48,11.48,0,0,1-5.4,1.49,10,10,0,0,1-5-1.09,8.67,8.67,0,0,1-3.08-3,11.56,11.56,0,0,1-1.61-4.39,34.43,34.43,0,0,1-.41-5.48V49.69H115.14v1.6h9.13V65.1a23.57,23.57,0,0,0,.6,5.76,15.83,15.83,0,0,0,1.42,3.82A8.38,8.38,0,0,0,128.13,77c.67.57,1.29,1,1.84,1.43a20,20,0,0,0,4.63,2.17,24.18,24.18,0,0,0,7.71,1,18,18,0,0,0,6.83-1.19,18.79,18.79,0,0,0,8.78-7.31,42.78,42.78,0,0,0,2.55-4.62h.24V80.05h19.1v-1.6Z" transform="translate(-95.76 -5.43)"/><path class="cls-1" d="M214.23,106.7" transform="translate(-95.76 -5.43)"/><path class="cls-1" d="M214.23,223.54" transform="translate(-95.76 -5.43)"/><path class="cls-1" d="M245.67,62.43" transform="translate(-95.76 -5.43)"/><path class="cls-1" d="M362.51,62.43" transform="translate(-95.76 -5.43)"/></svg>