<svg id="Ebene_1" data-name="Ebene 1" xmlns="http://www.w3.org/2000/svg" viewBox="0 0 254.31 41.44"><defs><style>.cls-1{fill:#fd1a16;}</style></defs><title>Verunstaltung Logo Typo Caramba</title><path d="M15.17,36.34H27.88v.58H23.32l9.13,23.87,9-23.87H37v-.58h8.89v.58H42.16L31.09,66.26h-1L18.87,36.92h-3.7Z" transform="translate(-15.17 -35.97)"/><path d="M44.22,55.44c0,.27,0,.55,0,.84s0,.65,0,1.09a25.61,25.61,0,0,0,.16,2.84,8.59,8.59,0,0,0,.72,2.68,5,5,0,0,0,1.65,2,4.88,4.88,0,0,0,2.9.78,7.13,7.13,0,0,0,3-.53,5.54,5.54,0,0,0,1.86-1.3,5.69,5.69,0,0,0,1-1.54c.22-.52.39-1,.5-1.28l.62.13q-.14.45-.48,1.29A5.72,5.72,0,0,1,55,64.1a6.66,6.66,0,0,1-2.06,1.48,7.52,7.52,0,0,1-3.35.64,10.74,10.74,0,0,1-3.81-.66,8.55,8.55,0,0,1-5-4.83,10.1,10.1,0,0,1-.7-3.81,9,9,0,0,1,.72-3.52,9.76,9.76,0,0,1,2-3,9.87,9.87,0,0,1,2.94-2.12,8.27,8.27,0,0,1,3.62-.81,8.15,8.15,0,0,1,2.47.42,7.25,7.25,0,0,1,2.45,1.33,7.39,7.39,0,0,1,1.89,2.45,8.42,8.42,0,0,1,.76,3.79Zm8.48-.58a8.32,8.32,0,0,0,.08-1.07v-1a8.19,8.19,0,0,0-.27-2.3A3.68,3.68,0,0,0,51.77,49a2.56,2.56,0,0,0-1.15-.76A4.61,4.61,0,0,0,49.16,48a4.37,4.37,0,0,0-2.31.56,4.15,4.15,0,0,0-1.44,1.5,8,8,0,0,0-.8,2.18,17.58,17.58,0,0,0-.35,2.59Z" transform="translate(-15.17 -35.97)"/><path d="M59.9,65.07h3.17V48.57H59.9V48h6.62v4.16h.09a7.8,7.8,0,0,1,.53-1.4,6.23,6.23,0,0,1,1-1.51A6,6,0,0,1,69.75,48,4.73,4.73,0,0,1,72,47.54a3.93,3.93,0,0,1,1.64.31,3.48,3.48,0,0,1,1.16.78,2.76,2.76,0,0,1,.65,1.09A3.79,3.79,0,0,1,75.66,51,2.14,2.14,0,0,1,75,52.76a2.32,2.32,0,0,1-1.44.46c-1.21,0-1.81-.39-1.81-1.16a1.91,1.91,0,0,1,.08-.59l.19-.46a3,3,0,0,0,.18-.51,2.9,2.9,0,0,0,.09-.82q0-1.32-1.44-1.32a2.53,2.53,0,0,0-1.4.49,5,5,0,0,0-1.38,1.44A9.17,9.17,0,0,0,67,52.58a9.88,9.88,0,0,0-.43,3.06v9.43h3.58v.57H59.9Z" transform="translate(-15.17 -35.97)"/><path d="M101,65.07h3.17V48.57H101V48h6.62v4.4h.08c.17-.35.41-.81.72-1.36a7.28,7.28,0,0,1,3.36-2.94,7.28,7.28,0,0,1,3-.55,7.11,7.11,0,0,1,4.43,1.31,5,5,0,0,1,1.7,4.2v12h3.17v.57h-9.87v-.57h3.17V51.78a4.33,4.33,0,0,0-.77-2.64,2.74,2.74,0,0,0-2.36-1,5.74,5.74,0,0,0-2.51.58,6.52,6.52,0,0,0-2.1,1.6,7.7,7.7,0,0,0-1.42,2.43,8.83,8.83,0,0,0-.52,3.05v9.3h3.17v.57H101Z" transform="translate(-15.17 -35.97)"/><path d="M126.89,59.88h.45a15.3,15.3,0,0,0,.75,2,7,7,0,0,0,1.21,1.85,5.79,5.79,0,0,0,4.55,1.91,3.67,3.67,0,0,0,2.34-.8,3.08,3.08,0,0,0,1-2.61,2.67,2.67,0,0,0-.8-2.2,6.12,6.12,0,0,0-1.87-1l-3.21-1.11c-.41-.14-.86-.31-1.34-.52a4.7,4.7,0,0,1-1.34-.86,4.29,4.29,0,0,1-1-1.42,5.45,5.45,0,0,1-.39-2.22,4.92,4.92,0,0,1,.46-2.14A5.46,5.46,0,0,1,129,49a5.31,5.31,0,0,1,1.87-1.15,6.56,6.56,0,0,1,2.37-.42,5.79,5.79,0,0,1,1.46.15,9.63,9.63,0,0,1,1,.29c.27.09.52.19.74.28a1.87,1.87,0,0,0,.78.15.73.73,0,0,0,.66-.33h.45v4.69h-.45c-.2-.6-.41-1.19-.66-1.75a6.91,6.91,0,0,0-.89-1.5,3.55,3.55,0,0,0-1.27-1,4,4,0,0,0-1.79-.37,4.76,4.76,0,0,0-3.07.89A2.9,2.9,0,0,0,129,51.28a2.33,2.33,0,0,0,.93,2,9.76,9.76,0,0,0,2.73,1.25l3,1a8.71,8.71,0,0,1,3.17,1.81,4,4,0,0,1,1.23,3.05,5.76,5.76,0,0,1-.43,2.18,5.29,5.29,0,0,1-1.28,1.87,6.54,6.54,0,0,1-2,1.3,7.53,7.53,0,0,1-2.78.49,6.72,6.72,0,0,1-1.67-.19c-.51-.12-1-.25-1.4-.39s-.81-.26-1.17-.39a3.15,3.15,0,0,0-1-.18,1,1,0,0,0-.66.18,2.85,2.85,0,0,0-.33.39h-.45Z" transform="translate(-15.17 -35.97)"/><path d="M142.36,48h3.17V42.68l.62.21a4.36,4.36,0,0,0,1,.08,3.41,3.41,0,0,0,1.07-.15,2.51,2.51,0,0,0,.86-.47V48h5.85v.58h-5.85V62a6.38,6.38,0,0,0,.23,1.87,2.82,2.82,0,0,0,.6,1.12,1.71,1.71,0,0,0,.8.51,3.15,3.15,0,0,0,.84.12,2.9,2.9,0,0,0,2.33-1,5.13,5.13,0,0,0,1.13-2.4l.57.2a8.4,8.4,0,0,1-.37,1.2,4,4,0,0,1-.76,1.25,4,4,0,0,1-1.33,1,4.82,4.82,0,0,1-2.06.39c-2.06,0-3.49-.4-4.3-1.19a4.53,4.53,0,0,1-1.22-3.38V48.57h-3.17Z" transform="translate(-15.17 -35.97)"/><path d="M175,65.19a5.21,5.21,0,0,1-1.28.72,4.59,4.59,0,0,1-1.81.31,4.07,4.07,0,0,1-2.86-.84A4.54,4.54,0,0,1,167.88,63h-.08c-.11.25-.27.56-.46.93a3.68,3.68,0,0,1-.88,1.07,5,5,0,0,1-1.59.86,7.65,7.65,0,0,1-2.51.35,7.91,7.91,0,0,1-2.75-.39,4.45,4.45,0,0,1-1.61-1,2.77,2.77,0,0,1-.76-1.29,5.57,5.57,0,0,1-.18-1.34,4.16,4.16,0,0,1,.57-2.31,4.51,4.51,0,0,1,1.5-1.38,10.32,10.32,0,0,1,2.06-.84c.76-.22,1.52-.45,2.29-.7s1.65-.56,2.24-.78a4.08,4.08,0,0,0,1.38-.8,2.55,2.55,0,0,0,.68-1.2,8.38,8.38,0,0,0,.18-1.95,11.73,11.73,0,0,0-.12-1.77,3.92,3.92,0,0,0-.46-1.34,2.08,2.08,0,0,0-.94-.84,4,4,0,0,0-1.65-.29,4.8,4.8,0,0,0-2.24.47,1.63,1.63,0,0,0-.89,1.55,8.06,8.06,0,0,0,.13,1.38,6.31,6.31,0,0,1,.12,1,1.29,1.29,0,0,1-.41,1,1.66,1.66,0,0,1-1.19.39c-.91,0-1.47-.16-1.69-.49a2.27,2.27,0,0,1-.33-1.28,3.89,3.89,0,0,1,.41-1.73,4.51,4.51,0,0,1,1.22-1.46,6.11,6.11,0,0,1,2-1,9.8,9.8,0,0,1,2.78-.37,9.08,9.08,0,0,1,3.17.48,5.55,5.55,0,0,1,2.06,1.27A4.7,4.7,0,0,1,171.05,51a6.81,6.81,0,0,1,.33,2.12V63.38a2.44,2.44,0,0,0,.37,1.6,1.34,1.34,0,0,0,1.07.42,3,3,0,0,0,.94-.17,3.44,3.44,0,0,0,1-.49Zm-7.2-9.63h-.09c-.05.36-.5.71-1.35,1.07l-3.09,1.24a4.43,4.43,0,0,0-2,1.5,4,4,0,0,0-.7,2.41,7.11,7.11,0,0,0,.13,1.27,3.17,3.17,0,0,0,.45,1.17,2.47,2.47,0,0,0,.93.85,3.14,3.14,0,0,0,1.54.33,3.86,3.86,0,0,0,2.2-.58,3.76,3.76,0,0,0,1.28-1.44,5.9,5.9,0,0,0,.57-1.87,12.49,12.49,0,0,0,.15-1.83Z" transform="translate(-15.17 -35.97)"/><path d="M176.31,65.07h3.17V36.55h-3.17V36H183v29.1h3.17v.57h-9.88Z" transform="translate(-15.17 -35.97)"/><path d="M187,48h3.17V42.68l.62.21a4.36,4.36,0,0,0,1,.08,3.46,3.46,0,0,0,1.07-.15,2.51,2.51,0,0,0,.86-.47V48h5.84v.58h-5.84V62a6.06,6.06,0,0,0,.23,1.87A2.94,2.94,0,0,0,194.5,65a1.81,1.81,0,0,0,.8.51,3.17,3.17,0,0,0,.85.12,2.88,2.88,0,0,0,2.32-1,5.15,5.15,0,0,0,1.14-2.4l.57.2a8.4,8.4,0,0,1-.37,1.2,4.24,4.24,0,0,1-.76,1.25,3.94,3.94,0,0,1-1.34,1,4.79,4.79,0,0,1-2.06.39c-2.05,0-3.49-.4-4.3-1.19a4.52,4.52,0,0,1-1.21-3.38V48.57H187Z" transform="translate(-15.17 -35.97)"/><path d="M223.39,65.64h-6.62V61.49h-.09a14.07,14.07,0,0,1-.88,1.66,6.9,6.9,0,0,1-1.28,1.53,6.64,6.64,0,0,1-1.77,1.11,5.92,5.92,0,0,1-2.36.43,8,8,0,0,1-2.68-.37,7,7,0,0,1-1.6-.78,6.38,6.38,0,0,1-.64-.52,2.9,2.9,0,0,1-.64-.84,5.77,5.77,0,0,1-.49-1.38,8.71,8.71,0,0,1-.21-2.08V48.57H201V48h6.71V60.62a13.46,13.46,0,0,0,.14,2,4.49,4.49,0,0,0,.56,1.58,3,3,0,0,0,1.07,1.07,3.36,3.36,0,0,0,1.73.39,3.81,3.81,0,0,0,1.87-.53,6.13,6.13,0,0,0,1.77-1.52,8.54,8.54,0,0,0,1.87-5.48V48.57h-3.12V48h6.66V65.07h3.17Z" transform="translate(-15.17 -35.97)"/><path d="M225.41,65.07h3.16V48.57h-3.16V48H232v4.4h.08c.17-.35.41-.81.72-1.36a7.28,7.28,0,0,1,3.36-2.94,7.28,7.28,0,0,1,3-.55,7.11,7.11,0,0,1,4.43,1.31,5,5,0,0,1,1.7,4.2v12h3.17v.57h-9.87v-.57h3.16V51.78a4.32,4.32,0,0,0-.76-2.64,2.74,2.74,0,0,0-2.36-1,5.74,5.74,0,0,0-2.51.58,6.52,6.52,0,0,0-2.1,1.6,7.52,7.52,0,0,0-1.42,2.43,8.61,8.61,0,0,0-.52,3.05v9.3h3.17v.57h-9.87Z" transform="translate(-15.17 -35.97)"/><path d="M249.73,63a4.12,4.12,0,0,1,.41-1.92,5.28,5.28,0,0,1,1-1.39,5.5,5.5,0,0,1,1.27-1c.45-.25.86-.45,1.22-.62a5.12,5.12,0,0,1-2.39-4.44A4.9,4.9,0,0,1,252,51a6.73,6.73,0,0,1,1.77-2,7.88,7.88,0,0,1,2.36-1.21,8.13,8.13,0,0,1,2.49-.42,6.4,6.4,0,0,1,3.19.75,9,9,0,0,1,2,1.35,4.87,4.87,0,0,1,1.34-1.44,3.57,3.57,0,0,1,2.2-.66,3.39,3.39,0,0,1,1.52.35,1.52,1.52,0,0,1,.7,1.51,1.34,1.34,0,0,1-.47,1.11,1.62,1.62,0,0,1-1,.37.94.94,0,0,1-.82-.33,4.58,4.58,0,0,1-.44-.7,6.68,6.68,0,0,0-.39-.7.68.68,0,0,0-.61-.33,1.38,1.38,0,0,0-.85.35,4.12,4.12,0,0,0-.76.8,9.51,9.51,0,0,1,.95,1.4,4.88,4.88,0,0,1,.57,2.47,4.31,4.31,0,0,1-.61,2.26,6.66,6.66,0,0,1-1.63,1.81A7.38,7.38,0,0,1,261.1,59a8.75,8.75,0,0,1-2.73.43,7.31,7.31,0,0,1-2.51-.39,17.07,17.07,0,0,1-1.65-.68l-1,.45a4.5,4.5,0,0,0-.94.62,3.13,3.13,0,0,0-.72.89,2.36,2.36,0,0,0-.29,1.17,1.94,1.94,0,0,0,.25,1,1.54,1.54,0,0,0,.63.61,2.82,2.82,0,0,0,.89.29,5.73,5.73,0,0,0,1,.08h6.5a7.1,7.1,0,0,1,4.59,1.38,5.25,5.25,0,0,1,1.71,4.34,6.88,6.88,0,0,1-.79,3.3A8.69,8.69,0,0,1,264,75.13a9.55,9.55,0,0,1-3,1.69,10.42,10.42,0,0,1-3.45.59,11,11,0,0,1-2.95-.37,8.06,8.06,0,0,1-2.32-1,4.82,4.82,0,0,1-1.54-1.54,3.79,3.79,0,0,1-.56-2,4.36,4.36,0,0,1,.43-2A5.82,5.82,0,0,1,251.76,69a7.21,7.21,0,0,1,1.55-1.18A11.8,11.8,0,0,1,255,67v-.08a7.23,7.23,0,0,1-4-.89A3.39,3.39,0,0,1,249.73,63Zm6.17,3.91-1.09.68a3.92,3.92,0,0,0-1,.88,4.51,4.51,0,0,0-.7,1.26,5.11,5.11,0,0,0-.27,1.79,5.26,5.26,0,0,0,.52,2.45,4.67,4.67,0,0,0,1.31,1.56,5,5,0,0,0,1.79.84,7.77,7.77,0,0,0,1.94.25,7.63,7.63,0,0,0,2.69-.45,7,7,0,0,0,2.1-1.22,5.29,5.29,0,0,0,1.36-1.75,4.59,4.59,0,0,0,.47-2,3.89,3.89,0,0,0-1.25-3.28,5.54,5.54,0,0,0-3.44-1Zm6.67-13.38a15.45,15.45,0,0,0-.13-1.91,5.67,5.67,0,0,0-.51-1.77,3.12,3.12,0,0,0-1.2-1.3,4.16,4.16,0,0,0-2.16-.49,3.88,3.88,0,0,0-3.16,1.28,6.48,6.48,0,0,0-1.07,4.19,12.51,12.51,0,0,0,.18,2.23,4.37,4.37,0,0,0,.68,1.7,3.07,3.07,0,0,0,1.32,1.09,5,5,0,0,0,2.09.37,3.41,3.41,0,0,0,3.05-1.33A7.35,7.35,0,0,0,262.57,53.5Z" transform="translate(-15.17 -35.97)"/><path d="M99,65.07v.57H92.33V61.49h-.09a14.07,14.07,0,0,1-.88,1.66,6.64,6.64,0,0,1-1.28,1.53,6.48,6.48,0,0,1-1.77,1.11,5.92,5.92,0,0,1-2.36.43,8,8,0,0,1-2.68-.37,7,7,0,0,1-1.6-.78,7.76,7.76,0,0,1-.64-.52,2.9,2.9,0,0,1-.64-.84,5.77,5.77,0,0,1-.49-1.38,8.71,8.71,0,0,1-.21-2.08v-5H76.52V54.7h6.71v5.92a12.17,12.17,0,0,0,.15,2,4.29,4.29,0,0,0,.55,1.58A3,3,0,0,0,85,65.25a3.38,3.38,0,0,0,1.73.39,3.81,3.81,0,0,0,1.87-.53,6.13,6.13,0,0,0,1.77-1.52,8.54,8.54,0,0,0,1.87-5.48V51.69a11.68,11.68,0,0,0-.12-1.76,3.65,3.65,0,0,0-.45-1.34,2.18,2.18,0,0,0-1-.85,4,4,0,0,0-1.64-.28,4.12,4.12,0,0,0-2.11.47,1.61,1.61,0,0,0-.88,1.54,7.87,7.87,0,0,0,.12,1.38,6.4,6.4,0,0,1,.12,1,1.25,1.25,0,0,1-.41,1,1.62,1.62,0,0,1-1.19.4c-.91,0-1.47-.17-1.69-.5a2.24,2.24,0,0,1-.33-1.27,3.86,3.86,0,0,1,.41-1.73,4.32,4.32,0,0,1,1.22-1.46,6,6,0,0,1,2-1,9.45,9.45,0,0,1,2.78-.37,9.34,9.34,0,0,1,3.17.47,5.48,5.48,0,0,1,2.06,1.28,4.63,4.63,0,0,1,1.11,1.81,6.77,6.77,0,0,1,.33,2.12l0,12.51Z" transform="translate(-15.17 -35.97)"/><path class="cls-1" d="M517.69,223.54" transform="translate(-15.17 -35.97)"/></svg>